<?xml version="1.0" encoding="UTF-8" standalone="no"?>
<!-- Created with Inkscape (http://www.inkscape.org/) -->

<svg
   xmlns:dc="http://purl.org/dc/elements/1.1/"
   xmlns:cc="http://creativecommons.org/ns#"
   xmlns:rdf="http://www.w3.org/1999/02/22-rdf-syntax-ns#"
   xmlns:svg="http://www.w3.org/2000/svg"
   xmlns="http://www.w3.org/2000/svg"
   xmlns:xlink="http://www.w3.org/1999/xlink"
   xmlns:sodipodi="http://sodipodi.sourceforge.net/DTD/sodipodi-0.dtd"
   xmlns:inkscape="http://www.inkscape.org/namespaces/inkscape"
   id="svg11300"
   sodipodi:docname="media-flash.svg"
   inkscape:export-filename="/home/jimmac/Desktop/wi-fi.png"
   viewBox="0 0 48 48"
   sodipodi:version="0.32"
   inkscape:export-xdpi="90.000000"
   inkscape:output_extension="org.inkscape.output.svg.inkscape"
   inkscape:export-ydpi="90.000000"
   inkscape:version="0.92.2 (5c3e80d, 2017-08-06)"
   version="1.1">
  <defs
     id="defs3">
    <linearGradient
       id="linearGradient6105"
       y2="46.636"
       gradientUnits="userSpaceOnUse"
       x2="22.797"
       gradientTransform="matrix(1 0 0 0.934 0 1.558)"
       y1="39.68"
       x1="22.797"
       inkscape:collect="always">
      <stop
         id="stop6101"
         style="stop-color:#eeeeec"
         offset="0" />
      <stop
         id="stop6107"
         style="stop-color:#dededa"
         offset=".89189" />
      <stop
         id="stop6103"
         style="stop-color:#838375"
         offset="1" />
    </linearGradient>
    <linearGradient
       id="linearGradient6202"
       y2="7.6786"
       gradientUnits="userSpaceOnUse"
       x2="22.102"
       y1="21.741"
       x1="29.375"
       inkscape:collect="always">
      <stop
         id="stop6198"
         style="stop-color:#edd400"
         offset="0" />
      <stop
         id="stop6204"
         style="stop-color:#c3af07"
         offset=".5" />
      <stop
         id="stop6200"
         style="stop-color:#ffeb3e"
         offset="1" />
    </linearGradient>
    <linearGradient
       id="linearGradient6208"
       y2="47.007"
       gradientUnits="userSpaceOnUse"
       x2="26.444"
       gradientTransform="matrix(1 0 0 .98252 0 -.070767)"
       y1="4.6076"
       x1="21.617"
       inkscape:collect="always">
      <stop
         id="stop6117"
         style="stop-color:#555753"
         offset="0" />
      <stop
         id="stop6119"
         style="stop-color:#3e3f3c"
         offset="1" />
    </linearGradient>
    <linearGradient
       id="linearGradient6216"
       y2="78.505"
       gradientUnits="userSpaceOnUse"
       x2="30.508"
       y1="8.6785"
       x1="16.846"
       inkscape:collect="always">
      <stop
         id="stop6212"
         style="stop-color:white"
         offset="0" />
      <stop
         id="stop6214"
         style="stop-color:white;stop-opacity:0"
         offset="1" />
    </linearGradient>
    <filter
       id="filter5339"
       height="2.2414"
       width="1.1379"
       y="-.62069"
       x="-.068966"
       inkscape:collect="always">
      <feGaussianBlur
         id="feGaussianBlur5341"
         stdDeviation="1.1886709"
         inkscape:collect="always" />
    </filter>
  </defs>
  <sodipodi:namedview
     id="base"
     bordercolor="#666666"
     inkscape:pageshadow="2"
     inkscape:window-y="36"
     pagecolor="#ffffff"
     inkscape:showpageshadow="false"
     inkscape:grid-bbox="true"
     inkscape:zoom="5.6568542"
     inkscape:cx="73.556229"
     inkscape:window-height="1007"
     showgrid="true"
     borderopacity="0.25490196"
     inkscape:current-layer="layer1"
     stroke="#ef2929"
     inkscape:cy="2.9468846"
     inkscape:window-x="0"
     inkscape:window-width="1920"
     inkscape:pageopacity="0.0"
     inkscape:document-units="px"
     fill="#eeeeec"
     inkscape:window-maximized="1">
    <inkscape:grid
       id="grid4690"
       type="xygrid" />
  </sodipodi:namedview>
  <g
     id="layer1"
     inkscape:label="Layer 1"
     inkscape:groupmode="layer">
    <rect
       id="rect4692"
       style="opacity:.43373;color:#000000;filter:url(#filter5339);fill:#000000"
       transform="matrix(.96581 0 0 1 .82194 0)"
       rx="2.3794"
       ry="2.2981"
       height="4.5962"
       width="41.366"
       y="41.99"
       x="3.3588" />
    <path
       id="path4291"
       sodipodi:nodetypes="cccccccsccc"
       style="fill-rule:evenodd;color:black;stroke-dashoffset:.8;stroke:#2e3436;fill:url(#linearGradient6208)"
       d="m5.5 3.2369v40.382c0.0697 1.05 0.9987 2.102 2.3834 1.997h31.852c0.894-0.043 1.778-0.786 1.765-2.258v-36.93c0-0.7162-0.231-1.1976-0.756-1.7134 0 0-2.749-2.8355-2.749-2.8355-0.288-0.2714-0.464-0.3791-1.26-0.3791h-30c-0.9372 0.0614-1.2975 1-1.235 1.7369z" />
    <rect
       id="rect6089"
       style="fill-rule:evenodd;color:black;stroke-dashoffset:.8;stroke:#2e3436;stroke-width:3;fill:#edd400"
       rx="1.8974"
       ry="1.8974"
       height="17"
       width="27.977"
       y="5.6161"
       x="9.5" />
    <rect
       id="rect4293"
       style="fill-rule:evenodd;color:black;stroke-dashoffset:.8;stroke:#c4a000;fill:url(#linearGradient6202)"
       rx="1.8974"
       ry="1.8974"
       height="17"
       width="27.977"
       y="5.6161"
       x="9.5" />
    <rect
       id="rect4295"
       style="opacity:.44944;color:black;stroke-dashoffset:.8;stroke:white;fill:none"
       transform="matrix(1 0 -.0055327 .99998 0 0)"
       rx="1.1461"
       ry="1.1461"
       height="15"
       width="26"
       y="6.6162"
       x="10.578" />
    <path
       id="path6043"
       sodipodi:nodetypes="ccccccccccccc"
       style="opacity:.44944;fill-rule:evenodd;color:black;fill:white"
       d="m12 6.1161v5.9999c7.205-2.8602 15.058 3.978 23 2v-7.928h1v15.928h-1v-6c-8.663 1.941-15.554-5.046-23-2v8h-1v-16l1 0.0001z" />
    <path
       id="path6045"
       sodipodi:nodetypes="ccccc"
       style="opacity:.44944;fill-rule:evenodd;color:black;fill:white"
       d="m13 6.1161v4.7349l1-0.239v-4.4959h-1z" />
    <path
       id="path6047"
       sodipodi:nodetypes="ccccc"
       style="opacity:.44944;fill-rule:evenodd;color:black;fill:white"
       d="m15 10.612v-4.4959h1v4.4069l-1 0.089z" />
    <path
       id="path6049"
       sodipodi:nodetypes="ccccc"
       style="opacity:.44944;fill-rule:evenodd;color:black;fill:white"
       d="m17 10.523v-4.4069h1v4.5579l-1-0.151z" />
    <path
       id="path6051"
       sodipodi:nodetypes="ccccc"
       style="opacity:.44944;fill-rule:evenodd;color:black;fill:white"
       d="m19 10.895v-4.7789h1v4.9999l-1-0.221z" />
    <path
       id="path6053"
       sodipodi:nodetypes="ccccc"
       style="opacity:.44944;fill-rule:evenodd;color:black;fill:white"
       d="m21 11.275v-5.1589h1v5.3349l-1-0.176z" />
    <path
       id="path6055"
       sodipodi:nodetypes="ccccc"
       style="opacity:.44944;fill-rule:evenodd;color:black;fill:white"
       d="m23 11.805v-5.6889h1v5.8219l-1-0.133z" />
    <path
       id="path6057"
       sodipodi:nodetypes="ccccc"
       style="opacity:.44944;fill-rule:evenodd;color:black;fill:white"
       d="m25 12.335v-6.2189h1v6.3959l-1-0.177z" />
    <path
       id="path6059"
       sodipodi:nodetypes="ccccc"
       style="opacity:.44944;fill-rule:evenodd;color:black;fill:white"
       d="m27 12.733v-6.6169h1v6.7939l-1-0.177z" />
    <path
       id="path6061"
       sodipodi:nodetypes="ccccc"
       style="opacity:.44944;fill-rule:evenodd;color:black;fill:white"
       d="m29 13.219v-7.1029h1v7.1919l-1-0.089z" />
    <path
       id="path6063"
       sodipodi:nodetypes="ccccc"
       style="opacity:.44944;fill-rule:evenodd;color:black;fill:white"
       d="m31 13.396v-7.2799h1v7.2799h-1z" />
    <path
       id="path6065"
       sodipodi:nodetypes="ccccc"
       style="opacity:.44944;fill-rule:evenodd;color:black;fill:white"
       d="m33 13.396v-7.2799h1v7.1469l-1 0.133z" />
    <path
       id="path6067"
       sodipodi:nodetypes="ccccc"
       style="opacity:.44944;fill-rule:evenodd;color:black;fill:white"
       d="m13 22.07v-7.431l1-0.114v7.545h-1z" />
    <path
       id="path6069"
       sodipodi:nodetypes="ccccc"
       style="opacity:.44944;fill-rule:evenodd;color:black;fill:white"
       d="m15 14.481v7.589h1v-7.722l-1 0.133z" />
    <path
       id="path6071"
       sodipodi:nodetypes="ccccc"
       style="opacity:.44944;fill-rule:evenodd;color:black;fill:white"
       d="m17 14.348v7.722h1v-7.607l-1-0.115z" />
    <path
       id="path6073"
       sodipodi:nodetypes="ccccc"
       style="opacity:.44944;fill-rule:evenodd;color:black;fill:white"
       d="m19 14.772v7.298h1v-7.077l-1-0.221z" />
    <path
       id="path6075"
       sodipodi:nodetypes="ccccc"
       style="opacity:.44944;fill-rule:evenodd;color:black;fill:white"
       d="m21 15.232v6.838h1v-6.573l-1-0.265z" />
    <path
       id="path6077"
       sodipodi:nodetypes="ccccc"
       style="opacity:.44944;fill-rule:evenodd;color:black;fill:white"
       d="m23 15.851v6.219h1v-5.865l-1-0.354z" />
    <path
       id="path6079"
       sodipodi:nodetypes="ccccc"
       style="opacity:.44944;fill-rule:evenodd;color:black;fill:white"
       d="m25 16.381v5.689h1v-5.424l-1-0.265z" />
    <path
       id="path6081"
       sodipodi:nodetypes="ccccc"
       style="opacity:.44944;fill-rule:evenodd;color:black;fill:white"
       d="m27 16.823v5.247h1v-5.07l-1-0.177z" />
    <path
       id="path6083"
       sodipodi:nodetypes="ccccc"
       style="opacity:.44944;fill-rule:evenodd;color:black;fill:white"
       d="m29 17.177v4.893h1v-4.849l-1-0.044z" />
    <path
       id="path6085"
       sodipodi:nodetypes="ccccc"
       style="opacity:.44944;fill-rule:evenodd;color:black;fill:white"
       d="m31 17.398v4.672h1v-4.805l-1 0.133z" />
    <path
       id="path6087"
       sodipodi:nodetypes="ccccc"
       style="opacity:.44944;fill-rule:evenodd;color:black;fill:white"
       d="m33 17.354v4.716h1v-4.893l-1 0.177z" />
    <rect
       id="rect6095"
       style="fill-rule:evenodd;color:black;fill:#2e3436"
       rx=".81718"
       ry=".81718"
       height="11"
       width="31"
       y="35.116"
       x="8" />
    <rect
       id="rect6097"
       style="fill-rule:evenodd;color:black;fill:url(#linearGradient6105)"
       rx=".12968"
       ry=".12968"
       height="9"
       width="29"
       y="36.116"
       x="9" />
    <rect
       id="rect6109"
       style="fill-rule:evenodd;color:black;fill:#8f5902"
       rx=".12968"
       ry=".12968"
       height="3"
       width="29"
       y="36.116"
       x="9" />
    <rect
       id="rect6111"
       style="fill-rule:evenodd;color:black;fill:#e9b96e"
       rx=".12968"
       ry=".12968"
       height="2"
       width="10.036"
       y="37.116"
       x="11" />
    <rect
       id="rect6113"
       style="fill-rule:evenodd;color:black;fill:#e9b96e"
       rx=".12968"
       ry=".12968"
       height="2"
       width="4.0364"
       y="37.116"
       x="22.964" />
    <path
       id="path6206"
       style="opacity:.17978;color:black;stroke-dashoffset:.8;stroke:url(#linearGradient6216);fill:none"
       sodipodi:type="inkscape:offset"
       d="m6.8125 2.5c-0.1411 0.0092-0.147 0.0057-0.2187 0.125-0.0718 0.1193-0.1077 0.3668-0.0938 0.5312 0.0015 0.0313 0.0015 0.0626 0 0.0938v40.312c0.0341 0.514 0.4648 1.127 1.3125 1.063 0.0208-0.001 0.0417-0.001 0.0625 0h31.813c0.354-0.017 0.822-0.207 0.812-1.281v-36.906c0-0.5076-0.035-0.6049-0.438-1.0005-0.01-0.0102-0.021-0.0206-0.031-0.0313 0 0-2.658-2.7503-2.719-2.8124-0.059-0.0564-0.029-0.0282-0.031-0.0313s-0.031-0.0313-0.031-0.0313c0 0.0001-0.146-0.0312-0.5-0.0312h-29.938z"
       xlink:href="#path4291"
       inkscape:original="M 6.7363281 1.5 C 5.7991281 1.5614 5.4375 2.4994281 5.5 3.2363281 L 5.5 43.619141 C 5.5697 44.669141 6.4981125 45.720234 7.8828125 45.615234 L 39.736328 45.615234 C 40.630328 45.572234 41.513 44.829422 41.5 43.357422 L 41.5 6.4277344 C 41.5 5.7115344 41.269141 5.2306438 40.744141 4.7148438 L 37.996094 1.8789062 C 37.708094 1.6075063 37.532328 1.5 36.736328 1.5 L 6.7363281 1.5 z "
       inkscape:href="#path4291"
       inkscape:radius="-1.000373" />
  </g>
  <metadata
     id="metadata1865">
    <rdf:RDF>
      <cc:Work>
        <dc:format>image/svg+xml</dc:format>
        <dc:type
           rdf:resource="http://purl.org/dc/dcmitype/StillImage" />
        <cc:license
           rdf:resource="http://creativecommons.org/publicdomain/zero/1.0/" />
        <dc:publisher>
          <cc:Agent
             rdf:about="http://openclipart.org/">
            <dc:title>Openclipart</dc:title>
          </cc:Agent>
        </dc:publisher>
        <dc:title>tango media flash</dc:title>
        <dc:date>2010-03-27T10:19:07</dc:date>
        <dc:description></dc:description>
        <dc:source>https://openclipart.org/detail/34573/tango-media-flash-by-warszawianka</dc:source>
        <dc:creator>
          <cc:Agent>
            <dc:title>warszawianka</dc:title>
          </cc:Agent>
        </dc:creator>
        <dc:subject>
          <rdf:Bag>
            <rdf:li>card</rdf:li>
            <rdf:li>externalsource</rdf:li>
            <rdf:li>flash</rdf:li>
            <rdf:li>icon</rdf:li>
            <rdf:li>storage</rdf:li>
            <rdf:li>tango</rdf:li>
            <rdf:li>openstack</rdf:li>
            <rdf:li>python</rdf:li>
          </rdf:Bag>
        </dc:subject>
      </cc:Work>
      <cc:License
         rdf:about="http://creativecommons.org/publicdomain/zero/1.0/">
        <cc:permits
           rdf:resource="http://creativecommons.org/ns#Reproduction" />
        <cc:permits
           rdf:resource="http://creativecommons.org/ns#Distribution" />
        <cc:permits
           rdf:resource="http://creativecommons.org/ns#DerivativeWorks" />
      </cc:License>
    </rdf:RDF>
  </metadata>
</svg>
