<?xml version="1.0" encoding="UTF-8" standalone="no"?>
<!-- Created with Inkscape (http://www.inkscape.org/) -->

<svg
   xmlns:dc="http://purl.org/dc/elements/1.1/"
   xmlns:cc="http://creativecommons.org/ns#"
   xmlns:rdf="http://www.w3.org/1999/02/22-rdf-syntax-ns#"
   xmlns:svg="http://www.w3.org/2000/svg"
   xmlns="http://www.w3.org/2000/svg"
   xmlns:sodipodi="http://sodipodi.sourceforge.net/DTD/sodipodi-0.dtd"
   xmlns:inkscape="http://www.inkscape.org/namespaces/inkscape"
   width="61.96085mm"
   height="22.172625mm"
   viewBox="0 0 61.96085 22.172624"
   version="1.1"
   id="svg2773"
   sodipodi:docname="rack-server-2.svg"
   inkscape:version="0.92.2 (5c3e80d, 2017-08-06)">
  <defs
     id="defs2767" />
  <sodipodi:namedview
     id="base"
     pagecolor="#ffffff"
     bordercolor="#666666"
     borderopacity="1.0"
     inkscape:pageopacity="0.0"
     inkscape:pageshadow="2"
     inkscape:zoom="2.8"
     inkscape:cx="8.44449"
     inkscape:cy="22.26691"
     inkscape:document-units="mm"
     inkscape:current-layer="layer1"
     showgrid="false"
     fit-margin-top="0"
     fit-margin-left="0"
     fit-margin-right="0"
     fit-margin-bottom="0"
     inkscape:window-width="1920"
     inkscape:window-height="1007"
     inkscape:window-x="0"
     inkscape:window-y="36"
     inkscape:window-maximized="1" />
  <metadata
     id="metadata2770">
    <rdf:RDF>
      <cc:Work
         rdf:about="">
        <dc:format>image/svg+xml</dc:format>
        <dc:type
           rdf:resource="http://purl.org/dc/dcmitype/StillImage" />
        <dc:title></dc:title>
        <dc:subject>
          <rdf:Bag>
            <rdf:li>EAP</rdf:li>
            <rdf:li>architecture</rdf:li>
            <rdf:li>cloud</rdf:li>
            <rdf:li>server</rdf:li>
            <rdf:li>rack</rdf:li>
            <rdf:li>sparc</rdf:li>
          </rdf:Bag>
        </dc:subject>
      </cc:Work>
    </rdf:RDF>
  </metadata>
  <g
     inkscape:label="Layer 1"
     inkscape:groupmode="layer"
     id="layer1"
     transform="translate(-54.529402,-88.080443)">
    <g
       id="g12827"
       transform="matrix(0.26458333,0,0,0.26458333,129.70994,-115.43992)">
      <rect
         style="fill:#cdcdcd;fill-opacity:1;stroke:#000000;stroke-width:4;stroke-linecap:round;stroke-linejoin:round;stroke-miterlimit:4;stroke-dasharray:none;stroke-dashoffset:0;stroke-opacity:1"
         id="rect3787"
         width="225.26402"
         height="32.80048"
         x="-279.72305"
         y="779.92834" />
      <rect
         style="fill:#8b8b8b;fill-opacity:1;stroke:#000000;stroke-width:4;stroke-linecap:round;stroke-linejoin:round;stroke-miterlimit:4;stroke-dasharray:none;stroke-dashoffset:0;stroke-opacity:1"
         id="rect3789"
         width="36.014954"
         height="21.735228"
         x="-121.99176"
         y="784.79919" />
      <rect
         style="fill:#8b8b8b;fill-opacity:1;stroke:#000000;stroke-width:4;stroke-linecap:round;stroke-linejoin:round;stroke-miterlimit:4;stroke-dasharray:none;stroke-dashoffset:0;stroke-opacity:1"
         id="rect3791"
         width="29.294424"
         height="7.1478505"
         x="-251.64185"
         y="786.09991" />
      <rect
         y="799.0921"
         x="-251.64185"
         height="7.1478505"
         width="29.294424"
         id="rect3793"
         style="fill:#8b8b8b;fill-opacity:1;stroke:#000000;stroke-width:4;stroke-linecap:round;stroke-linejoin:round;stroke-miterlimit:4;stroke-dasharray:none;stroke-dashoffset:0;stroke-opacity:1" />
      <rect
         y="786.09991"
         x="-211.64185"
         height="7.14785"
         width="77.024139"
         id="rect3805"
         style="fill:#8b8b8b;fill-opacity:1;stroke:#000000;stroke-width:4;stroke-linecap:round;stroke-linejoin:round;stroke-miterlimit:4;stroke-dasharray:none;stroke-dashoffset:0;stroke-opacity:1" />
      <rect
         style="fill:#8b8b8b;fill-opacity:1;stroke:#000000;stroke-width:4;stroke-linecap:round;stroke-linejoin:round;stroke-miterlimit:4;stroke-dasharray:none;stroke-dashoffset:0;stroke-opacity:1"
         id="rect3807"
         width="77.024139"
         height="7.14785"
         x="-211.64185"
         y="799.0921" />
      <rect
         y="811.92841"
         x="-279.72305"
         height="32.80048"
         width="225.26402"
         id="rect3809"
         style="fill:#cdcdcd;fill-opacity:1;stroke:#000000;stroke-width:4;stroke-linecap:round;stroke-linejoin:round;stroke-miterlimit:4;stroke-dasharray:none;stroke-dashoffset:0;stroke-opacity:1" />
      <rect
         y="816.79919"
         x="-121.99176"
         height="21.735228"
         width="36.014954"
         id="rect3811"
         style="fill:#8b8b8b;fill-opacity:1;stroke:#000000;stroke-width:4;stroke-linecap:round;stroke-linejoin:round;stroke-miterlimit:4;stroke-dasharray:none;stroke-dashoffset:0;stroke-opacity:1" />
      <rect
         y="818.09991"
         x="-251.64185"
         height="7.1478505"
         width="29.294424"
         id="rect3813"
         style="fill:#8b8b8b;fill-opacity:1;stroke:#000000;stroke-width:4;stroke-linecap:round;stroke-linejoin:round;stroke-miterlimit:4;stroke-dasharray:none;stroke-dashoffset:0;stroke-opacity:1" />
      <rect
         style="fill:#8b8b8b;fill-opacity:1;stroke:#000000;stroke-width:4;stroke-linecap:round;stroke-linejoin:round;stroke-miterlimit:4;stroke-dasharray:none;stroke-dashoffset:0;stroke-opacity:1"
         id="rect3815"
         width="29.294424"
         height="7.1478505"
         x="-251.64185"
         y="831.0921" />
      <rect
         style="fill:#8b8b8b;fill-opacity:1;stroke:#000000;stroke-width:4;stroke-linecap:round;stroke-linejoin:round;stroke-miterlimit:4;stroke-dasharray:none;stroke-dashoffset:0;stroke-opacity:1"
         id="rect3817"
         width="77.024139"
         height="7.14785"
         x="-211.64185"
         y="818.09991" />
      <rect
         y="831.0921"
         x="-211.64185"
         height="7.14785"
         width="77.024139"
         id="rect3819"
         style="fill:#8b8b8b;fill-opacity:1;stroke:#000000;stroke-width:4;stroke-linecap:round;stroke-linejoin:round;stroke-miterlimit:4;stroke-dasharray:none;stroke-dashoffset:0;stroke-opacity:1" />
      <g
         transform="translate(-667.52012,736.57734)"
         id="g3831">
        <rect
           style="fill:#8b8b8b;fill-opacity:1;stroke:#000000;stroke-width:4;stroke-linecap:round;stroke-linejoin:round;stroke-miterlimit:4;stroke-dasharray:none;stroke-dashoffset:0;stroke-opacity:1"
           id="rect3821"
           width="18.182745"
           height="79.802048"
           x="385.3732"
           y="34.633492" />
        <circle
           r="3.5355339"
           cy="52.816238"
           cx="393.45441"
           style="fill:#8b8b8b;fill-opacity:1;stroke:#000000;stroke-width:4;stroke-linecap:round;stroke-linejoin:round;stroke-miterlimit:4;stroke-dasharray:none;stroke-dashoffset:0;stroke-opacity:1"
           id="path3823"
           transform="translate(1.0101525,-8.0812204)" />
        <circle
           r="3.5355339"
           cy="52.816238"
           cx="393.45441"
           transform="translate(1.0101525,11.91878)"
           id="path3825"
           style="fill:#8b8b8b;fill-opacity:1;stroke:#000000;stroke-width:4;stroke-linecap:round;stroke-linejoin:round;stroke-miterlimit:4;stroke-dasharray:none;stroke-dashoffset:0;stroke-opacity:1" />
        <circle
           r="3.5355339"
           cy="52.816238"
           cx="393.45441"
           style="fill:#8b8b8b;fill-opacity:1;stroke:#000000;stroke-width:4;stroke-linecap:round;stroke-linejoin:round;stroke-miterlimit:4;stroke-dasharray:none;stroke-dashoffset:0;stroke-opacity:1"
           id="path3827"
           transform="translate(1.0101525,31.91878)" />
        <circle
           r="3.5355339"
           cy="52.816238"
           cx="393.45441"
           transform="translate(1.0101525,51.91878)"
           id="path3829"
           style="fill:#8b8b8b;fill-opacity:1;stroke:#000000;stroke-width:4;stroke-linecap:round;stroke-linejoin:round;stroke-miterlimit:4;stroke-dasharray:none;stroke-dashoffset:0;stroke-opacity:1" />
      </g>
      <g
         transform="translate(-455.52012,736.57734)"
         id="g3838">
        <rect
           y="34.633492"
           x="385.3732"
           height="79.802048"
           width="18.182745"
           id="rect3840"
           style="fill:#8b8b8b;fill-opacity:1;stroke:#000000;stroke-width:4;stroke-linecap:round;stroke-linejoin:round;stroke-miterlimit:4;stroke-dasharray:none;stroke-dashoffset:0;stroke-opacity:1" />
        <circle
           r="3.5355339"
           cy="52.816238"
           cx="393.45441"
           transform="translate(1.0101525,-8.0812204)"
           id="path3842"
           style="fill:#8b8b8b;fill-opacity:1;stroke:#000000;stroke-width:4;stroke-linecap:round;stroke-linejoin:round;stroke-miterlimit:4;stroke-dasharray:none;stroke-dashoffset:0;stroke-opacity:1" />
        <circle
           r="3.5355339"
           cy="52.816238"
           cx="393.45441"
           style="fill:#8b8b8b;fill-opacity:1;stroke:#000000;stroke-width:4;stroke-linecap:round;stroke-linejoin:round;stroke-miterlimit:4;stroke-dasharray:none;stroke-dashoffset:0;stroke-opacity:1"
           id="path3844"
           transform="translate(1.0101525,11.91878)" />
        <circle
           r="3.5355339"
           cy="52.816238"
           cx="393.45441"
           transform="translate(1.0101525,31.91878)"
           id="path3846"
           style="fill:#8b8b8b;fill-opacity:1;stroke:#000000;stroke-width:4;stroke-linecap:round;stroke-linejoin:round;stroke-miterlimit:4;stroke-dasharray:none;stroke-dashoffset:0;stroke-opacity:1" />
        <circle
           r="3.5355339"
           cy="52.816238"
           cx="393.45441"
           style="fill:#8b8b8b;fill-opacity:1;stroke:#000000;stroke-width:4;stroke-linecap:round;stroke-linejoin:round;stroke-miterlimit:4;stroke-dasharray:none;stroke-dashoffset:0;stroke-opacity:1"
           id="path3848"
           transform="translate(1.0101525,51.91878)" />
      </g>
    </g>
    <rect
       style="fill:#000000;fill-opacity:1;stroke:none;stroke-width:1.75110042;stroke-linejoin:round;stroke-miterlimit:4;stroke-dasharray:none;stroke-dashoffset:0;stroke-opacity:1"
       id="rect949"
       width="30.309082"
       height="8.9503336"
       x="75.791985"
       y="93.647423"
       ry="0" />
    <g
       transform="translate(-4.1497562,26.968928)"
       aria-label="EAP arch"
       style="font-style:normal;font-weight:normal;font-size:46.02793503px;line-height:28.76746178px;font-family:sans-serif;letter-spacing:0px;word-spacing:0px;fill:#ffffff;fill-opacity:1;stroke:none;stroke-width:1.15069842px;stroke-linecap:butt;stroke-linejoin:miter;stroke-opacity:1"
       id="text939">
      <path
         inkscape:connector-curvature="0"
         d="m 84.711796,69.593292 v 0.443498 h -1.753017 v 1.291539 h 1.411404 v 0.428516 h -1.411404 v 1.330495 h 1.756014 l -0.003,0.443498 H 82.4104 v -3.937546 z"
         style="font-style:normal;font-variant:normal;font-weight:normal;font-stretch:normal;font-size:6.13705826px;line-height:0px;font-family:Carlito;-inkscape-font-specification:Carlito;fill:#ffffff;fill-opacity:1;stroke-width:1.15069842px"
         id="path1615" />
      <path
         inkscape:connector-curvature="0"
         d="m 88.442576,73.530838 h -0.422522 q -0.07192,0 -0.116867,-0.03596 -0.04195,-0.03596 -0.06593,-0.0899 l -0.33562,-0.946929 h -1.624163 l -0.332624,0.943933 q -0.01798,0.05094 -0.06892,0.0899 -0.04795,0.03896 -0.116868,0.03896 H 84.93654 l 1.477329,-3.937546 h 0.554373 z m -2.427254,-1.462346 h 1.348475 l -0.55737,-1.585207 q -0.02997,-0.07192 -0.05993,-0.16781 -0.02997,-0.09589 -0.05694,-0.206766 -0.02997,0.113871 -0.05993,0.209763 -0.02997,0.09589 -0.05694,0.16781 z"
         style="font-style:normal;font-variant:normal;font-weight:normal;font-stretch:normal;font-size:6.13705826px;line-height:0px;font-family:Carlito;-inkscape-font-specification:Carlito;fill:#ffffff;fill-opacity:1;stroke-width:1.15069842px"
         id="path1617" />
      <path
         inkscape:connector-curvature="0"
         d="m 89.446441,72.062499 v 1.468339 h -0.545383 v -3.937546 h 1.129722 q 0.359593,0 0.623295,0.0869 0.266698,0.0869 0.440502,0.245722 0.173803,0.15882 0.257708,0.386562 0.0869,0.224746 0.0869,0.503431 0,0.275688 -0.09289,0.50343 -0.0899,0.227743 -0.269695,0.395553 -0.1768,0.164814 -0.440502,0.257709 -0.260705,0.0899 -0.605315,0.0899 z m 0,-0.431512 h 0.584339 q 0.209763,0 0.37158,-0.05993 0.161817,-0.05993 0.269695,-0.16781 0.110874,-0.107878 0.164813,-0.257709 0.05694,-0.14983 0.05694,-0.329627 0,-0.377573 -0.21276,-0.584339 -0.212759,-0.209763 -0.650264,-0.209763 h -0.584339 z"
         style="font-style:normal;font-variant:normal;font-weight:normal;font-stretch:normal;font-size:6.13705826px;line-height:0px;font-family:Carlito;-inkscape-font-specification:Carlito;fill:#ffffff;fill-opacity:1;stroke-width:1.15069842px"
         id="path1619" />
      <path
         inkscape:connector-curvature="0"
         d="m 95.355757,73.530838 q -0.07791,0 -0.119865,-0.02397 -0.04195,-0.02397 -0.05694,-0.09889 l -0.06593,-0.272692 q -0.113871,0.104882 -0.224745,0.188787 -0.107878,0.08091 -0.227743,0.137844 -0.119864,0.05694 -0.257708,0.08391 -0.137844,0.02997 -0.302658,0.02997 -0.170807,0 -0.320637,-0.04495 -0.146834,-0.04795 -0.260705,-0.143837 -0.110875,-0.09889 -0.1768,-0.242726 -0.06293,-0.146834 -0.06293,-0.34461 0,-0.173803 0.09289,-0.332624 0.09589,-0.161817 0.308651,-0.287674 0.212759,-0.125858 0.554373,-0.20377 0.341613,-0.08091 0.83905,-0.09289 V 71.65797 q 0,-0.341613 -0.146833,-0.51242 -0.143838,-0.173803 -0.422523,-0.173803 -0.185789,0 -0.314644,0.04794 -0.125857,0.04795 -0.218752,0.104882 -0.09289,0.05693 -0.161817,0.104881 -0.06593,0.04795 -0.134848,0.04795 -0.05394,0 -0.09289,-0.02697 -0.03896,-0.02697 -0.06293,-0.06892 l -0.09589,-0.16781 q 0.242726,-0.233735 0.52141,-0.347607 0.281682,-0.116867 0.623295,-0.116867 0.245722,0 0.437505,0.08091 0.191783,0.07791 0.320638,0.224746 0.128854,0.146834 0.194779,0.350603 0.06892,0.20377 0.06892,0.452488 v 1.872882 z m -1.09676,-0.323634 q 0.131851,0 0.242726,-0.02697 0.110874,-0.02697 0.209763,-0.07492 0.09889,-0.05094 0.185789,-0.122861 0.0899,-0.07491 0.1768,-0.164813 v -0.605316 q -0.350603,0.01498 -0.596325,0.05993 -0.245722,0.04195 -0.401546,0.113871 -0.152827,0.07192 -0.221749,0.170807 -0.06892,0.09589 -0.06892,0.215756 0,0.113871 0.03596,0.197776 0.03896,0.08091 0.101885,0.134847 0.06293,0.05094 0.149831,0.07791 0.0869,0.02397 0.185789,0.02397 z"
         style="font-style:normal;font-variant:normal;font-weight:normal;font-stretch:normal;font-size:6.13705826px;line-height:0px;font-family:Carlito;-inkscape-font-specification:Carlito;fill:#ffffff;fill-opacity:1;stroke-width:1.15069842px"
         id="path1621" />
      <path
         inkscape:connector-curvature="0"
         d="m 96.356624,73.530838 v -2.930685 h 0.302658 q 0.08391,0 0.116868,0.03296 0.03596,0.03296 0.04195,0.110874 l 0.03596,0.431512 q 0.134847,-0.290671 0.332623,-0.458481 0.197777,-0.16781 0.476462,-0.16781 0.09289,0 0.173803,0.02098 0.08091,0.01798 0.146834,0.06293 l -0.04195,0.389559 q -0.009,0.07491 -0.0839,0.07491 -0.04195,0 -0.119864,-0.01498 -0.07492,-0.01798 -0.16781,-0.01798 -0.134848,0 -0.239729,0.04195 -0.101885,0.03896 -0.18579,0.119865 -0.08091,0.07791 -0.143837,0.191783 -0.06293,0.113871 -0.116868,0.260705 v 1.851905 z"
         style="font-style:normal;font-variant:normal;font-weight:normal;font-stretch:normal;font-size:6.13705826px;line-height:0px;font-family:Carlito;-inkscape-font-specification:Carlito;fill:#ffffff;fill-opacity:1;stroke-width:1.15069842px"
         id="path1623" />
      <path
         inkscape:connector-curvature="0"
         d="m 100.33013,71.127556 q -0.024,0.03296 -0.048,0.05094 -0.021,0.01498 -0.0629,0.01498 -0.0449,0 -0.0929,-0.03596 -0.048,-0.03596 -0.11986,-0.07791 -0.07192,-0.04495 -0.176805,-0.08091 -0.101884,-0.03596 -0.251715,-0.03596 -0.197776,0 -0.350603,0.07791 -0.149831,0.07492 -0.251716,0.218752 -0.09889,0.140841 -0.152827,0.34461 -0.05094,0.20377 -0.05094,0.458482 0,0.263702 0.05394,0.470468 0.05694,0.203769 0.15882,0.34461 0.101885,0.140841 0.245722,0.215756 0.143838,0.07192 0.323634,0.07192 0.173804,0 0.284678,-0.04495 0.110875,-0.04495 0.185792,-0.09889 0.0749,-0.05394 0.12286,-0.09889 0.0509,-0.04495 0.10488,-0.04495 0.0599,0 0.0959,0.05094 l 0.15283,0.191783 q -0.0959,0.116868 -0.21276,0.20377 -0.11687,0.08391 -0.25172,0.140841 -0.134843,0.05394 -0.281677,0.08091 -0.143837,0.02697 -0.293668,0.02697 -0.257708,0 -0.482454,-0.101885 -0.224746,-0.101885 -0.392556,-0.293668 -0.164814,-0.19478 -0.260705,-0.473464 -0.09289,-0.281682 -0.09289,-0.641275 0,-0.326631 0.0869,-0.602319 0.0869,-0.278685 0.251715,-0.479458 0.16781,-0.200772 0.410536,-0.311647 0.245722,-0.113871 0.563362,-0.113871 0.299661,0 0.524407,0.101885 0.22475,0.09889 0.39855,0.278684 z"
         style="font-style:normal;font-variant:normal;font-weight:normal;font-stretch:normal;font-size:6.13705826px;line-height:0px;font-family:Carlito;-inkscape-font-specification:Carlito;fill:#ffffff;fill-opacity:1;stroke-width:1.15069842px"
         id="path1625" />
      <path
         inkscape:connector-curvature="0"
         d="m 101.05531,73.530838 v -4.26118 h 0.5274 v 1.717058 q 0.1828,-0.197777 0.40455,-0.314644 0.22474,-0.116868 0.51841,-0.116868 0.23973,0 0.41953,0.08091 0.18279,0.07791 0.30565,0.224746 0.12286,0.143837 0.18279,0.350604 0.0629,0.203769 0.0629,0.452488 v 1.866888 h -0.5274 v -1.86689 q 0,-0.326631 -0.14684,-0.509424 -0.14683,-0.182793 -0.44949,-0.182793 -0.22474,0 -0.41653,0.107878 -0.19178,0.107878 -0.3536,0.296664 v 2.154563 z"
         style="font-style:normal;font-variant:normal;font-weight:normal;font-stretch:normal;font-size:6.13705826px;line-height:0px;font-family:Carlito;-inkscape-font-specification:Carlito;fill:#ffffff;fill-opacity:1;stroke-width:1.15069842px"
         id="path1627" />
    </g>
  </g>
</svg>
